<svg id="Line" enable-background="new 0 0 512 512" height="512" viewBox="0 0 512 512" width="512"
    xmlns="http://www.w3.org/2000/svg">
    <g fill="#0c2a8b">
        <path
            d="m40 280c-4.418 0-8 3.582-8 8v18.333c0 1.949.711 3.831 2 5.293 26.306 29.824 71.809 32.676 101.634 6.37 4.667-4.117 8.781-8.821 12.239-13.996h22.583l21.544 57.451v22.66h16v-24.111c0-.959-.172-1.911-.509-2.809l-23.491-62.642v-26.549c.007-6.624 5.376-11.993 12-12h92c-.02 17.665-14.335 31.98-32 32h-24c-4.418 0-8 3.582-8 8 0 1.392.363 2.76 1.054 3.969l25.412 44.471c3.623 6.347 5.53 13.529 5.534 20.838v18.722h16v-18.722c-.005-10.093-2.639-20.01-7.642-28.776l-18.572-32.502h10.214c13.302.006 26.008-5.522 35.07-15.26 6.466 12.656 21.388 18.46 34.706 13.5l-21.439 71.46c-.223.746-.337 1.521-.337 2.3v80h-96v-55.927h-16v63.927c0 4.418 3.582 8 8 8h112c4.418 0 8-3.582 8-8v-86.826l21.952-73.174h22.175c22.095 33.066 66.811 41.96 99.877 19.865 5.175-3.458 9.879-7.572 13.996-12.239 1.289-1.462 2-3.344 2-5.293v-18.333c0-4.418-3.582-8-8-8h-43.719l-10.666-16 10.666-16h43.719c4.418 0 8-3.582 8-8v-18.333c0-1.949-.711-3.831-2-5.293-26.306-29.824-71.809-32.676-101.634-6.37-4.667 4.117-8.781 8.821-12.239 13.996h-20.127v-12c.004-15.46-12.526-27.996-27.986-28-4.669-.001-9.264 1.166-13.367 3.394-4.753-14.715-20.536-22.791-35.251-18.038-1.171.378-2.315.833-3.426 1.362-.703-15.445-13.794-27.395-29.239-26.691-9.209.419-17.622 5.346-22.493 13.173-12.584-8.975-30.061-6.05-39.036 6.534-3.386 4.748-5.205 10.434-5.202 16.266v44h-20.127c-22.095-33.066-66.811-41.96-99.877-19.865-5.175 3.458-9.879 7.572-13.996 12.239-1.289 1.462-2 3.344-2 5.293v18.333c0 4.418 3.582 8 8 8h43.719l10.666 16-10.666 16zm304-40h24.562c2.856 0 5.495-1.522 6.925-3.994 15.467-26.79 49.722-35.969 76.512-20.503 4.404 2.543 8.442 5.673 12.001 9.306v7.191h-40c-2.675 0-5.172 1.337-6.656 3.562l-16 24c-1.792 2.687-1.792 6.189 0 8.876l16 24c1.484 2.225 3.981 3.562 6.656 3.562h40v7.191c-21.651 22.094-57.114 22.453-79.207.802-3.632-3.56-6.763-7.597-9.306-12.002-1.431-2.471-4.07-3.992-6.925-3.991h-24.562zm-40-28c0-6.627 5.373-12 12-12s12 5.373 12 12v64c0 6.627-5.373 12-12 12s-12-5.373-12-12zm-40-16c0-6.627 5.373-12 12-12s12 5.373 12 12v44h-24zm-40-24c0-6.627 5.373-12 12-12s12 5.373 12 12v68h-24zm-40 8c0-6.627 5.373-12 12-12s12 5.373 12 12v60h-12c-4.151-.006-8.251.916-12 2.7zm-89.344 112.438 16-24c1.792-2.687 1.792-6.189 0-8.876l-16-24c-1.484-2.225-3.981-3.562-6.656-3.562h-40v-7.191c21.651-22.094 57.114-22.453 79.207-.802 3.632 3.56 6.763 7.597 9.306 12.002 1.431 2.471 4.07 3.992 6.925 3.991h24.562v48h-24.562c-2.856 0-5.495 1.522-6.925 3.994-15.467 26.79-49.722 35.969-76.512 20.503-4.404-2.543-8.442-5.673-12.001-9.306v-7.191h40c2.675 0 5.172-1.337 6.656-3.562z" />
        <path
            d="m494 24h-30.285c-2.006-13.767-13.802-23.982-27.715-24h-8c-13.913.018-25.709 10.233-27.715 24h-24.57c-2.006-13.767-13.802-23.982-27.715-24h-8c-13.913.018-25.709 10.233-27.715 24h-24.57c-2.006-13.767-13.802-23.982-27.715-24h-8c-13.913.018-25.709 10.233-27.715 24h-24.57c-2.006-13.767-13.802-23.982-27.715-24h-8c-13.913.018-25.709 10.233-27.715 24h-24.57c-2.006-13.767-13.802-23.982-27.715-24h-8c-13.913.018-25.709 10.233-27.715 24h-30.285c-9.936.012-17.988 8.064-18 18v100.7h16v-30.7h480v280.092h16v-350.092c-.012-9.936-8.064-17.988-18-18zm-78 4c.007-6.624 5.376-11.993 12-12h8c6.624.007 11.993 5.376 12 12v24c-.007 6.624-5.376 11.993-12 12h-8c-6.624-.007-11.993-5.376-12-12zm-88 0c.007-6.624 5.376-11.993 12-12h8c6.624.007 11.993 5.376 12 12v24c-.007 6.624-5.376 11.993-12 12h-8c-6.624-.007-11.993-5.376-12-12zm-88 0c.007-6.624 5.376-11.993 12-12h8c6.624.007 11.993 5.376 12 12v24c-.007 6.624-5.376 11.993-12 12h-8c-6.624-.007-11.993-5.376-12-12zm-88 0c.007-6.624 5.376-11.993 12-12h8c6.624.007 11.993 5.376 12 12v24c-.007 6.624-5.376 11.993-12 12h-8c-6.624-.007-11.993-5.376-12-12zm-88 0c.007-6.624 5.376-11.993 12-12h8c6.624.007 11.993 5.376 12 12v24c-.007 6.624-5.376 11.993-12 12h-8c-6.624-.007-11.993-5.376-12-12zm432 68h-480v-54c0-1.105.895-2 2-2h30v12c.018 15.457 12.543 27.982 28 28h8c15.457-.018 27.982-12.543 28-28v-12h24v12c.018 15.457 12.543 27.982 28 28h8c15.457-.018 27.982-12.543 28-28v-12h24v12c.018 15.457 12.543 27.982 28 28h8c15.457-.018 27.982-12.543 28-28v-12h24v12c.018 15.457 12.543 27.982 28 28h8c15.457-.018 27.982-12.543 28-28v-12h24v12c.018 15.457 12.543 27.982 28 28h8c15.457-.018 27.982-12.543 28-28v-12h30c1.105 0 2 .895 2 2z" />
        <path
            d="m496 494c0 1.105-.895 2-2 2h-476c-1.105 0-2-.895-2-2v-332.849h-16v332.849c.012 9.936 8.064 17.988 18 18h476c9.936-.012 17.988-8.064 18-18v-87.443h-16z" />
    </g>
</svg>