<svg xmlns="http://www.w3.org/2000/svg" x="0px" y="0px" width="100" height="100" viewBox="0 0 172 172"
    style=" fill:#000000;">
    <g fill="none" fill-rule="nonzero" stroke="none" stroke-width="1" stroke-linecap="butt" stroke-linejoin="miter"
        stroke-miterlimit="10" stroke-dasharray="" stroke-dashoffset="0" font-family="none" font-weight="none"
        font-size="none" text-anchor="none" style="mix-blend-mode: normal">
        <path d="M0,172v-172h172v172z" fill="none"></path>
        <g fill="#0c2a8b">
            <path
                d="M46.78265,13.76c-16.29715,0 -29.58265,13.2855 -29.58265,29.58265v61.92v2.75469v24.08c0,16.29715 13.2855,29.58265 29.58265,29.58265h78.43469c16.29715,0 29.58265,-13.2855 29.58265,-29.58265v-24.08v-2.75469v-61.92c0,-16.29715 -13.2855,-29.58265 -29.58265,-29.58265zM46.78265,20.64h78.43469c12.57821,0 22.70265,10.12445 22.70265,22.70265v61.92v2.75469c0,12.57821 -10.12445,22.70265 -22.70265,22.70265h-78.43469c-12.5782,0 -22.70265,-10.12445 -22.70265,-22.70265v-2.75469v-61.92c0,-12.5782 10.12445,-22.70265 22.70265,-22.70265zM94.98297,41.28672c-1.15916,0.00314 -2.30049,0.03487 -3.42656,0.09406c-9.00856,0.47353 -16.94159,2.70241 -23.48203,6.05359c-13.08089,6.70237 -20.93931,17.9586 -19.81359,28.90406c0.7673,7.55482 3.80767,12.10847 6.93375,14.45203c0.36749,0.27551 0.62901,0.28545 0.98765,0.5039c-3.97641,5.91122 -7.12096,12.00956 -7.98859,18.31531c-0.20966,1.23669 0.27036,2.48948 1.25273,3.26943c0.98236,0.77995 2.31136,0.96344 3.46831,0.47886c1.15695,-0.48458 1.95848,-1.56043 2.09177,-2.80766c0.62709,-4.55755 2.94598,-9.45132 6.0536,-14.35125c0.37428,0.43647 0.63816,0.87465 1.05485,1.33031c2.17819,2.38193 5.18275,4.75353 8.86875,6.51047c7.37201,3.51387 17.84155,4.20247 27.4864,-3.53406c0.04568,-0.03471 0.09049,-0.07055 0.13437,-0.1075c9.15417,-8.12341 12.1725,-16.39342 14.36469,-24.35547c2.19219,-7.96205 3.74262,-15.6457 10.25281,-24.96016c0.61918,-0.88779 0.78446,-2.01522 0.44614,-3.04338c-0.33831,-1.02816 -1.14077,-1.83715 -2.16614,-2.18381c-9.49357,-3.20924 -18.4048,-4.59074 -26.5189,-4.56875zM91.91922,48.24063c6.98738,-0.36832 14.94107,0.75441 23.44172,3.17797c-4.94519,8.51578 -7.23164,16.26508 -9.03,22.79672c-2.10099,7.63079 -4.25976,13.85822 -12.24156,20.96922c-7.67349,6.11033 -14.55131,5.31238 -20.14281,2.64719c-2.80571,-1.33734 -5.19615,-3.2359 -6.75906,-4.945c-1.37666,-1.50542 -1.61057,-2.6659 -1.72672,-2.39187c1.42113,-1.76557 2.43609,-3.5911 4.085,-5.29438c7.93507,-8.19667 18.20521,-15.45849 28.23219,-20.16297c1.72175,-0.80521 2.46475,-2.85372 1.65953,-4.57547c-0.80521,-1.72175 -2.85372,-2.46475 -4.57547,-1.65953c-10.84695,5.0892 -21.6776,12.75451 -30.25453,21.61422c-1.65312,1.70762 -2.72667,3.63268 -4.19922,5.42203c-0.36551,-0.17286 -0.67789,-0.24988 -1.08844,-0.55765c-1.57964,-1.18422 -3.59235,-3.51995 -4.21266,-9.64141c0,-0.00224 0,-0.00448 0,-0.00672c-0.72499,-7.04917 4.83483,-16.3033 16.10485,-22.07781c5.63501,-2.88725 12.6169,-4.88807 20.70719,-5.31453zM24.08,126.94406c5.43335,6.50303 13.59685,10.65594 22.70265,10.65594h78.43469c9.1058,0 17.2693,-4.15291 22.70265,-10.65594v5.15328c0,12.57821 -10.12445,22.70265 -22.70265,22.70265h-78.43469c-12.5782,0 -22.70265,-10.12445 -22.70265,-22.70265z">
            </path>
        </g>
    </g>
</svg>