<svg id="Line" enable-background="new 0 0 512 512" height="512" viewBox="0 0 512 512" width="512"
    xmlns="http://www.w3.org/2000/svg">
    <g fill="#0c2a8b">
        <g>
            <path
                d="m367.888 512h-39.775v-16h31.775v-48h-56c-4.418 0-8-3.582-8-8v-96h16v88h56c4.418 0 8 3.582 8 8v64c0 4.418-3.582 8-8 8z" />
        </g>
        <g>
            <path
                d="m312.113 512h-168.225c-4.418 0-8-3.582-8-8v-64c0-4.418 3.582-8 8-8h56v-88h16v96c0 4.418-3.582 8-8 8h-56v48h160.225z" />
        </g>
        <g>
            <path
                d="m215.888 216h-16v-32h-64c-2.902 0-5.577-1.572-6.989-4.107s-1.341-5.636.187-8.104l64.381-104 13.604 8.422-56.822 91.789h57.639c4.418 0 8 3.582 8 8z" />
        </g>
        <g>
            <path
                d="m311.888 216h-16v-200h-51.543l-27.369 44.211-13.604-8.422 29.714-48c1.458-2.355 4.031-3.789 6.802-3.789h64c4.418 0 8 3.582 8 8z" />
        </g>
        <g>
            <path
                d="m507.821 362.331c-21.441-12.104-43.904-22.726-66.86-31.619l19.421-52.593c1.53-4.145-.589-8.745-4.733-10.276-102.869-37.996-213.947-45.85-321.223-22.714l3.373 15.641c101.69-21.933 206.89-15.222 304.783 19.364l-22.174 60.046c-106.341-37.338-222.476-37.338-328.817 0l-22.173-60.045c17.232-6.084 34.891-11.363 52.606-15.724l-3.824-15.537c-20.883 5.14-41.692 11.522-61.85 18.969-4.145 1.53-6.263 6.131-4.732 10.275l19.421 52.593c-22.953 8.892-45.415 19.513-66.86 31.619-2.65 1.496-4.222 4.366-4.055 7.405.167 3.038 2.043 5.72 4.841 6.916 13.058 5.588 25.913 11.783 38.294 18.454-3.021 11.8-5.585 23.721-7.639 35.521-.53 3.046.742 6.125 3.269 7.908 1.377.972 2.992 1.464 4.613 1.464 1.352 0 2.708-.342 3.932-1.033 36.867-20.812 76.507-35.948 117.818-44.986 2.704-.592 5.451-1.164 8.164-1.703 3.457-.686 6.058-3.552 6.404-7.059 1.709-17.274 4.035-34.749 6.924-52.031 45.919-6.683 92.591-6.683 138.51 0 2.889 17.283 5.215 34.758 6.924 52.029.347 3.507 2.947 6.374 6.404 7.06h.001v.001c1.061.21 2.122.425 3.182.644l.02.004c21.568 4.451 42.918 10.625 63.511 18.367l5.631-14.977c-13.378-5.029-27.063-9.421-40.919-13.136 18.351-9.757 37.718-18.215 57.795-25.234v-.001c.239-.083.475-.178.707-.285 1.928-.888 3.423-2.505 4.158-4.495l2.748-7.443c17.177 6.665 34.07 14.328 50.44 22.881-10.345 4.838-20.499 10.024-30.335 15.498-3.211 1.786-4.792 5.53-3.833 9.078 2.129 7.875 4.05 15.823 5.744 23.766-9.899-5.093-20.011-9.823-30.209-14.13l-6.223 14.745c14.853 6.271 29.51 13.475 43.565 21.409 1.225.691 2.58 1.033 3.932 1.033 1.621 0 3.237-.492 4.614-1.464 2.525-1.783 3.799-4.862 3.269-7.908-2.054-11.797-4.618-23.719-7.64-35.521 12.381-6.671 25.235-12.866 38.295-18.453 2.798-1.197 4.674-3.879 4.841-6.917.166-3.04-1.405-5.91-4.055-7.406zm-453.254 54.613c1.695-7.943 3.615-15.891 5.744-23.763.959-3.547-.622-7.292-3.833-9.079-9.836-5.472-19.992-10.66-30.335-15.497 16.372-8.554 33.263-16.216 50.44-22.881l2.748 7.442c.735 1.99 2.231 3.607 4.158 4.495.247.114.499.214.755.302 20.06 7.015 39.408 15.467 57.741 25.214-30.256 8.108-59.536 19.416-87.418 33.767zm109.969-39.49c-17.157-10.069-35.288-19.006-54.139-26.695 19.629-6.244 39.569-11.193 59.69-14.847-2.214 13.815-4.073 27.726-5.551 41.542zm237.067-26.695c-18.851 7.688-36.981 16.625-54.139 26.695-1.478-13.815-3.337-27.726-5.55-41.542 20.121 3.655 40.06 8.604 59.689 14.847z" />
        </g>
        <g>
            <path
                d="m63.888 112c-2.924 0-5.616-1.596-7.019-4.161l-13.018-23.802-23.802-13.018c-2.565-1.403-4.161-4.095-4.161-7.019s1.596-5.616 4.161-7.019l23.802-13.018 13.019-23.802c1.402-2.565 4.094-4.161 7.018-4.161 2.924 0 5.616 1.596 7.019 4.161l13.018 23.802 23.802 13.018c2.565 1.403 4.161 4.095 4.161 7.019s-1.596 5.616-4.161 7.019l-23.802 13.018-13.018 23.802c-1.403 2.565-4.095 4.161-7.019 4.161zm-23.328-48 13.024 7.123c1.342.734 2.446 1.838 3.18 3.18l7.124 13.025 7.123-13.025c.734-1.342 1.838-2.446 3.18-3.18l13.025-7.123-13.024-7.123c-1.342-.734-2.446-1.838-3.18-3.18l-7.123-13.025-7.124 13.025c-.734 1.342-1.837 2.446-3.18 3.18z" />
        </g>
        <g>
            <path
                d="m447.888 240.172c-2.924 0-5.615-1.596-7.019-4.161l-13.019-23.802-23.802-13.019c-2.565-1.403-4.161-4.094-4.161-7.019s1.596-5.616 4.161-7.019l23.802-13.018 13.019-23.802c1.403-2.565 4.095-4.161 7.019-4.161 2.925 0 5.616 1.596 7.019 4.162l13.018 23.802 23.803 13.018c2.565 1.403 4.161 4.095 4.161 7.019s-1.596 5.616-4.161 7.019l-23.803 13.018-13.018 23.802c-1.404 2.565-4.094 4.161-7.019 4.161zm-23.328-48 13.024 7.124c1.342.734 2.445 1.837 3.18 3.18l7.124 13.024 7.123-13.024c.733-1.342 1.838-2.446 3.18-3.18l13.025-7.124-13.025-7.123c-1.342-.734-2.446-1.838-3.18-3.181l-7.123-13.024-7.124 13.024c-.734 1.342-1.838 2.446-3.18 3.18z" />
        </g>
    </g>
</svg>