<svg id="Line" enable-background="new 0 0 512 512" height="512" viewBox="0 0 512 512" width="512"
    xmlns="http://www.w3.org/2000/svg">
    <g fill="#0c2a8b">
        <path
            d="m472 144.159v-24c0-2.943-1.616-5.649-4.208-7.044l-208.031-112c-2.368-1.274-5.218-1.274-7.586 0l-135.968 73.226 7.587 14.087 132.176-71.183 200.03 107.693v19.221z" />
        <path d="m44.207 113.116c-2.591 1.396-4.207 4.101-4.207 7.043v24h16v-19.222l55.213-29.734-7.587-14.087z" />
        <path
            d="m24 248.159c-4.418 0-8 3.582-8 8v18.333c0 1.95.712 3.832 2.002 5.294 10.194 11.549 23.728 19.426 38.513 22.686 21.188 61.986 62.291 116.435 116.175 153.736l78.768 54.529c1.37.948 2.962 1.422 4.554 1.422s3.184-.474 4.554-1.422l78.758-54.528-9.107-13.155-74.205 51.375-74.214-51.376c-49.098-33.988-87.004-82.992-107.712-138.925 23.261-.68 44.877-12.693 57.787-31.969h38.583l21.544 57.451v54.549h16v-56c0-.959-.172-1.911-.509-2.809l-23.491-62.642v-26.549c0-6.617 5.383-12 12-12h92c0 17.645-14.355 32-32 32h-24c-2.852 0-5.488 1.518-6.919 3.984-1.431 2.467-1.441 5.509-.026 7.985l25.412 44.471c3.621 6.336 5.534 13.542 5.534 20.838v18.722h16v-18.722c0-10.076-2.643-20.026-7.642-28.776l-18.572-32.502h10.213c13.825 0 26.303-5.875 35.07-15.26 4.645 9.052 14.076 15.26 24.93 15.26 3.437 0 6.731-.623 9.776-1.761l-9.439 31.462 15.325 4.598 10.29-34.299h38.175c12.912 19.278 34.532 31.293 57.797 31.969-18.313 49.632-49.587 93.159-90.937 126.403l10.025 12.47c45.606-36.665 79.592-85.188 98.478-140.531 14.782-3.261 28.315-11.137 38.508-22.685 1.29-1.462 2.002-3.344 2.002-5.294v-18.333c0-4.418-3.582-8-8-8h-43.719l-10.667-16 10.667-16h43.719c4.418 0 8-3.582 8-8v-18.333c0-1.95-.712-3.832-2.002-5.294-13.671-15.49-33.353-24.374-53.998-24.374-24.05 0-46.578 12.149-59.873 32h-36.127v-12c0-15.439-12.561-28-28-28-4.832 0-9.382 1.23-13.353 3.394-3.639-11.242-14.209-19.394-26.647-19.394-4.303 0-8.383.976-12.03 2.718-.672-14.847-12.961-26.718-27.97-26.718-10.01 0-18.811 5.28-23.762 13.202-4.583-3.274-10.19-5.202-16.238-5.202-15.439 0-28 12.561-28 28v44h-36.127c-13.295-19.851-35.823-32-59.873-32-20.646 0-40.327 8.884-53.998 24.374-1.29 1.462-2.002 3.344-2.002 5.294v18.333c0 4.418 3.582 8 8 8h43.719l10.667 16-10.667 16h-43.719zm320-40h40.562c2.855 0 5.495-1.522 6.925-3.994 9.993-17.274 28.582-28.006 48.513-28.006 15.076 0 29.492 6.092 40 16.809v7.191h-40c-2.675 0-5.173 1.337-6.656 3.562l-16 24c-1.792 2.687-1.792 6.188 0 8.875l16 24c1.483 2.226 3.981 3.562 6.656 3.562h40v7.191c-10.508 10.717-24.924 16.809-40 16.809-19.931 0-38.52-10.731-48.513-28.006-1.43-2.472-4.069-3.994-6.925-3.994h-40.562zm-40-28c0-6.617 5.383-12 12-12s12 5.383 12 12v64c0 6.617-5.383 12-12 12s-12-5.383-12-12zm-40-16c0-6.617 5.383-12 12-12s12 5.383 12 12v44h-24zm-40-24c0-6.617 5.383-12 12-12s12 5.383 12 12v68h-24zm-40 8c0-6.617 5.383-12 12-12s12 5.383 12 12v60h-12c-4.292 0-8.361.971-12 2.704zm-105.344 112.438 16-24c1.792-2.687 1.792-6.188 0-8.875l-16-24c-1.483-2.226-3.981-3.562-6.656-3.562h-40v-7.191c10.508-10.717 24.924-16.809 40-16.809 19.931 0 38.52 10.731 48.513 28.006 1.43 2.472 4.069 3.994 6.925 3.994h40.562v48h-40.562c-2.855 0-5.495 1.522-6.925 3.994-9.993 17.274-28.582 28.005-48.513 28.005-15.076 0-29.492-6.092-40-16.809v-7.191h40c2.675 0 5.173-1.337 6.656-3.562z" />
        <path d="m320 345.333 6.863-22.875-15.325-4.598-7.2 24c-.224.746-.337 1.52-.337 2.299v40h16v-38.826z" />
        <path
            d="m204.549 410.99c-37.322-25.713-67.007-61.04-85.848-102.163l-14.546 6.664c20.042 43.746 51.619 81.325 91.316 108.674l55.999 38.582c1.366.941 2.952 1.412 4.539 1.412s3.173-.471 4.539-1.413l55.989-38.58c39.696-27.351 71.271-64.931 91.31-108.676l-14.546-6.664c-18.838 41.123-48.522 76.45-85.842 102.165l-51.451 35.452z" />
        <path
            d="m91.717 151.387 164.256-86.193 164.311 86.197 7.433-14.169-168.028-88.147c-2.327-1.221-5.105-1.221-7.434 0l-167.972 88.144z" />
    </g>
</svg>